<svg xmlns="http://www.w3.org/2000/svg" viewBox="0 0 18 30">
    <g>
        <path fill="#e0e1e0" d="M15.6 15.96h-.07c-.18-.02-.35-.04-.51-.05-.04 0-.08 0-.12-.01l-.43-.03c-.16-.01-.31-.02-.45-.02h-.28c-1.79-.09-3.58.3-5.16 1.15-1.48.71-3 1.44-7 1.1l-.36-.03-.21-.03c.85-2.24 2.63-4 4.89-4.82.05-.02.09-.07.09-.12V6.03c0-.07-.05-.13-.12-.13-.77 0-1.39-.63-1.38-1.39 0-.76.62-1.38 1.38-1.38h6.06c.77 0 1.39.63 1.38 1.39 0 .76-.62 1.38-1.38 1.38-.07 0-.13.05-.13.12v7.07c0 .05.03.1.09.12 1.48.53 2.78 1.48 3.73 2.74Z" />
        <path fill="#cac8c7" d="M12 13.21s-.08-.07-.08-.12V6.03c0-.07.05-.12.12-.13.36 0 .7-.15.94-.41.25-.26.39-.61.39-.98a1.37 1.37 0 0 0-1.34-1.39L10.99 3c.46.22 0 .44 0 1 0 .37.25-.26 0 0s-.15 0-.5 0c-.07 0-.5-.07-.5 0v8.97c0 .05.03.1.08.12 1.44.54 2.69 1.49 3.59 2.74h-.07c-.17-.02 1.41.17.19.01-.09-.01.17 0 .27 0 .14 0 .29.01.44.02.14 0 .28.02.42.03.04 0 .08 0 .12.01.16.02.33.03.5.05h.07c-.9-1.25-2.15-2.2-3.59-2.74Z" />
        <path fill="red" d="M17.33 21.17c0 4.67-3.77 8.46-8.44 8.47S.43 25.87.42 21.2v-.03c0-.98.16-1.96.48-2.89.12.02.24.03.36.04l.28.03.35.03c.78.06 1.45.07 2.06.06.32-.01.61-.03.88-.06.62-.05 1.24-.17 1.84-.34.18-.05.35-.11.51-.16.51-.19 1-.41 1.48-.65.38-.18.75-.36 1.16-.52.16-.07.33-.13.5-.18 1.46-.42 2.98-.55 4.49-.38.31.03.64.06.98.1 1 1.45 1.54 3.17 1.53 4.94Z" />
        <path fill="#616262" d="M12 .5H6L7 4h4l1-3.5z" />
        <path fill="#4d4d4d" d="M10.71.5 10 3H6.71L7 4h4l1-3.5h-1.29z" />
        <path d="M2.74 23.5c-.23 0-.43-.16-.49-.38C2.08 22.43 2 21.72 2 21c0-.35.02-.71.06-1.06.03-.27.28-.47.55-.44.27.03.47.28.44.55-.03.31-.05.63-.05.94 0 .63.07 1.27.22 1.88.06.27-.1.54-.37.6-.04 0-.08.01-.12.01ZM5 26.5a.46.46 0 0 1-.33-.13c-.37-.32-.71-.68-1.01-1.06-.17-.22-.14-.53.08-.7s.53-.14.7.08c.27.34.57.65.9.94.21.18.23.5.04.71a.48.48 0 0 1-.37.17Z" class="cls-5" />
    </g>
    <path fill="#010101" d="M12.5 12.66V6.44A2.012 2.012 0 0 0 13.94 4c-.23-.88-1.02-1.5-1.94-1.5h-.05l.53-1.86a.501.501 0 0 0-.34-.62C12.09 0 12.05 0 12 0H6c-.28 0-.5.22-.5.5 0 .05 0 .09.02.14l.53 1.86H6c-1.1 0-2 .9-2 2 0 .91.62 1.71 1.5 1.94v6.22A8.845 8.845 0 0 0 0 21a9 9 0 0 0 18 0 8.845 8.845 0 0 0-5.5-8.34ZM11.34 1l-.71 2.5H7.38L6.67 1h4.67ZM6.17 13.47c.2-.07.33-.26.33-.47V6c0-.28-.22-.5-.5-.5-.55 0-1-.45-1-1s.45-1 1-1h.34l.18.64c.06.21.26.36.48.36h4c.22 0 .42-.15.48-.36l.18-.64H12c.55 0 1 .45 1 1s-.45 1-1 1c-.28 0-.5.22-.5.5v7c0 .21.13.4.33.47 1.12.4 2.14 1.06 2.96 1.92-3.41-.23-4.86.46-6.27 1.14-1.49.72-2.91 1.39-6.79 1.05a7.736 7.736 0 0 1 4.43-4.1ZM9 29c-4.42 0-7.99-3.58-8-8 0-.83.12-1.66.36-2.46.86.08 1.61.12 2.28.12 1.85.06 3.68-.37 5.31-1.24 1.47-.7 2.87-1.37 6.7-.96a8.116 8.116 0 0 1 1.34 4.53c0 4.42-3.58 7.99-8 8Z" />
</svg>
